# AST/ASF file generated using VICON BodyLanguage
# -----------------------------------------------
:version 1.10
:name VICON
:units
  mass 1.0
  length 0.45
  angle deg
:documentation
   .ast/.asf automatically generated from VICON data using
   VICON BodyBuilder and BodyLanguage model FoxedUp or BRILLIANT.MOD
:root
   order TX TY TZ RX RY RZ
   axis XYZ
   position 0 0 0  
   orientation 0 0 0 
:bonedata
  begin
     id 1 
     name lhipjoint
     direction 0.650112 -0.723553 0.232005 
     length 2.45805 
     axis 0 0 0  XYZ
  end
  begin
     id 2 
     name lfemur
     direction 0.34202 -0.939693 0  
     length 7.00073  
     axis 0 0 20  XYZ
    dof rx ry rz
    limits (-160.0 20.0)
           (-70.0 70.0)
           (-60.0 70.0)
  end
  begin
     id 3 
     name ltibia
     direction 0.34202 -0.939693 0   
     length 7.8748   
     axis 0 0 20   XYZ
    dof rx
    limits (-10.0 170.0)
  end
  begin
     id 4 
     name lfoot
     direction 0.0542825 -0.14914 0.987325   
     length 1.75978   
     axis -90 7.62852e-016 20   XYZ
    dof rx rz
    limits (-45.0 90.0)
           (-70.0 20.0)
  end
  begin
     id 5 
     name ltoes
     direction 1.53509e-011 -4.21906e-011 1   
     length 0.893912   
     axis -90 7.62852e-016 20   XYZ
    dof rx
    limits (-90.0 20.0)
  end
  begin
     id 6 
     name rhipjoint
     direction -0.637897 -0.733345 0.235145   
     length 2.42522  
     axis 0 0 0  XYZ 
  end
  begin
     id 7 
     name rfemur
     direction -0.34202 -0.939693 0   
     length 7.02549   
     axis 0 0 -20   XYZ
    dof rx ry rz
    limits (-160.0 20.0)
           (-70.0 70.0)
           (-70.0 60.0)
  end
  begin
     id 8 
     name rtibia
     direction -0.34202 -0.939693 0   
     length 7.71512   
     axis 0 0 -20   XYZ
    dof rx
    limits (-10.0 170.0)
 end
 begin
     id 9 
     name rfoot
     direction -0.0822618 -0.226012 0.970645   
     length 1.90014  
     axis -90 -7.62852e-016 -20   XYZ
    dof rx rz
    limits (-45.0 90.0)
           (-20.0 70.0)
  end
  begin
     id 10 
     name rtoes
     direction -1.53542e-011 -4.21872e-011 1   
     length 0.957341   
     axis -90 -7.62852e-016 -20   XYZ
    dof rx
    limits (-90.0 20.0)
  end
  begin
     id 11 
     name lowerback
     direction -0.0022947 0.999774 -0.0211557   
     length 1.89909   
     axis 0 0 0   XYZ
    dof rx ry rz
    limits (-20.0 45.0)
           (-30.0 30.0)
           (-30.0 30.0)
  end
  begin
     id 12 
     name upperback
     direction 0.0107737 0.998635 0.0511027   
     length 1.8853   
     axis 0 0 0   XYZ
    dof rx ry rz
    limits (-20.0 45.0)
           (-30.0 30.0)
           (-30.0 30.0)
  end
  begin
     id 13 
     name thorax
     direction 0.011824 0.998136 0.0598754   
     length 1.88911   
     axis 0 0 0   XYZ
    dof rx ry rz
    limits (-20.0 45.0)
           (-30.0 30.0)
           (-30.0 30.0)
  end
  begin
     id 14 
     name lowerneck
     direction -0.0685355 0.990319 0.120714   
     length 1.91222   
     axis 0 0 0   XYZ
    dof rx ry rz
    limits (-20.0 45.0)
           (-30.0 30.0)
           (-30.0 30.0)
  end
  begin
     id 15 
     name upperneck
     direction 0.0886204 0.955665 -0.280805   
     length 1.92526   
     axis 0 0 0   XYZ
    dof rx ry rz
    limits (-20.0 45.0)
           (-30.0 30.0)
           (-30.0 30.0)
  end
  begin
     id 16
     name head
     direction 0.0233423 0.993502 -0.111393  
     length 1.96056  
     axis 0 0 0   XYZ
    dof rx ry rz
    limits (-20.0 45.0)
           (-30.0 30.0)
           (-30.0 30.0)
  end
  begin
     id 17 
     name lclavicle
     direction 0.941873 0.32922 0.0670041  
     length 3.31705  
     axis 0 0 0   XYZ
    dof ry rz
    limits (-20.0 10.0)
           (0.0 20.0)
  end
  begin
     id 18 
     name lhumerus
     direction 1 -4.4898e-011 3.38707e-028   
     length 5.29277   
     axis 180 -30 -90   XYZ
    dof rx ry rz
    limits (-60.0 90.0)
           (-90.0 90.0)
           (-90.0 90.0)
  end
  begin
     id 19
     name lradius
     direction 1 -4.48952e-011 1.63213e-028   
     length 2.85226   
     axis 180 -30 -90   XYZ
    dof rx
    limits (-10.0 170.0)
  end
  begin
     id 20
     name lwrist
     direction 1 -4.49001e-011 1.27856e-027   
     length 1.42613   
     axis -1.61767e-015 90 90   XYZ
    dof ry
    limits (-180.0 0.0)
 end
  begin
     id 21 
     name lhand
     direction 1 -4.48976e-011 2.55931e-027   
     length 0.602097   
     axis -1.63363e-015 90 90   XYZ
    dof rx rz
    limits (-90.0 90.0)
           (-45.0 45.0)
  end
  begin
     id 22 
     name lfingers
     direction 1 -4.48986e-011 5.11684e-027   
     length 0.485426   
     axis -3.26723e-015 90 90   XYZ
    dof rx
    limits (0.0 90.0)
  end
  begin
     id 23
     name lthumb
     direction 0.707107 -6.34915e-011 0.707107   
     length 0.696978   
     axis -90 45 -2.25915e-014   XYZ
    dof rx rz
    limits (-45.0 45.0)
           (-45.0 45.0)
  end
  begin
     id 24 
     name rclavicle
     direction -0.939974 0.327078 0.0973096   
     length 3.10337  
     axis 0 0 0   XYZ 
    dof ry rz
    limits (-10.0 20.0)
           (-20.0 0.0)
  end
  begin
     id 25 
     name rhumerus
     direction -1 -4.48975e-011 1.83745e-027  
     length 5.13304   
     axis 180 30 90   XYZ
    dof rx ry rz
    limits (-90.0 60.0)
           (-90.0 90.0)
           (-90.0 90.0)
  end
  begin
     id 26 
     name rradius
     direction -1 -4.48977e-011 7.1775e-029   
     length 2.74305   
     axis 180 30 90   XYZ
    dof rx
    limits (-10.0 170.0)
  end
  begin
     id 27 
     name rwrist
     direction -1 -4.48977e-011 1.27963e-027   
     length 1.37152   
     axis -1.61767e-015 -90 -90   XYZ
    dof ry
    limits (-180.0 0.0)
  end
  begin
     id 28
     name rhand
     direction -1 -4.4888e-011 2.56782e-027   
     length 0.767976   
     axis -1.63363e-015 -90 -90   XYZ
    dof rx rz
    limits (-90.0 90.0)
           (-45.0 45.0)
  end
  begin
     id 29
     name rfingers
     direction -1 -4.48947e-011 5.12384e-027   
     length 0.619162   
     axis -3.26723e-015 -90 -90   XYZ
    dof rx
    limits (0.0 90.0)
  end
  begin
     id 30
     name rthumb
     direction -0.707107 -6.34857e-011 0.707107   
     length 0.888997   
     axis -90 -45 2.25915e-014   XYZ
    dof rx rz
    limits (-45.0 45.0)
           (-45.0 45.0)
  end
:hierarchy
  begin
    root lhipjoint rhipjoint lowerback
    lhipjoint lfemur
    lfemur ltibia
    ltibia lfoot
    lfoot ltoes
    rhipjoint rfemur
    rfemur rtibia
    rtibia rfoot
    rfoot rtoes
    lowerback upperback
    upperback thorax
    thorax lowerneck lclavicle rclavicle
    lowerneck upperneck
    upperneck head
    lclavicle lhumerus
    lhumerus lradius
    lradius lwrist
    lwrist lhand lthumb
    lhand lfingers
    rclavicle rhumerus
    rhumerus rradius
    rradius rwrist
    rwrist rhand rthumb
    rhand rfingers
  end

#!OML:ASF F:\VICON\USERDATA\INSTALL\rory3\rory3.ASF
:FULLY-SPECIFIED
:DEGREES
484
root -0.320599 17.3464 -0.269435 -0.770136 3.56962 -1.79696
lowerback -1.40278 -0.17261 0.710616
upperback -1.52693 -0.261433 -5.5774
thorax -0.815202 -0.168815 -6.18283
lowerneck -13.4671 -11.5915 -19.3424
upperneck 17.4028 -12.3783 3.6199
head 9.17968 -6.7538 2.64543
rclavicle -2.5842e-015 -4.45278e-014
rhumerus 12.9725 -5.27835 1.57564
rradius 134.167
rwrist 20.5455
rhand -25.968 20.4233
rfingers 7.12502
rthumb 0.576678 -9.55562
lclavicle -2.5842e-015 -4.45278e-014
lhumerus 12.9618 -1.19373 36.1748
lradius 129.997
lwrist -10.4663
lhand -18.6151 11.0138
lfingers 7.12502
lthumb 7.67666 40.8544
rfemur 5.58443 11.4461 24.1691
rtibia 8.27197
rfoot -10.1741 -16.0205
rtoes -11.5691
lfemur -1.46336 -16.6102 -16.0278
ltibia 17.8613
lfoot -15.6644 6.79564
ltoes -17.4971
485
root -0.319992 17.3473 -0.26556 -0.79233 3.53449 -1.8366
lowerback -1.39121 -0.182164 0.7232
upperback -1.52573 -0.27449 -5.55208
thorax -0.821805 -0.175478 -6.16322
lowerneck -13.3905 -11.5917 -19.4042
upperneck 17.3324 -12.3934 3.67909
head 9.15156 -6.75803 2.67675
rclavicle -5.76476e-015 -1.59028e-015
rhumerus 13.0931 -5.21167 1.56321
rradius 134.137
rwrist 20.5923
rhand -26.0144 20.3602
rfingers 7.12502
rthumb 0.531834 -9.61885
lclavicle -5.76476e-015 -1.59028e-015
lhumerus 12.9002 -1.18048 36.1726
lradius 130.031
lwrist -10.5278
lhand -18.649 10.9773
lfingers 7.12502
lthumb 7.64398 40.8192
rfemur 5.74801 11.4871 24.2141
rtibia 8.03323
rfoot -10.0762 -15.9934
rtoes -11.5723
lfemur -1.3607 -16.6243 -16.0101
ltibia 17.7764
lfoot -15.6997 6.85862
ltoes -17.0236
486
root -0.319168 17.3474 -0.262451 -0.782484 3.51882 -1.83841
lowerback -1.41732 -0.188908 0.710462
upperback -1.52249 -0.28268 -5.55343
thorax -0.804652 -0.179144 -6.15747
lowerneck -13.2253 -11.6211 -19.519
upperneck 17.1773 -12.4735 3.82103
head 9.09502 -6.78664 2.73886
rclavicle -2.5842e-015 1.43125e-014
rhumerus 13.1447 -5.22662 1.58167
rradius 134.201
rwrist 20.5467
rhand -25.9582 20.1947
rfingers 7.12502
rthumb 0.586071 -9.78424
lclavicle -2.5842e-015 1.43125e-014
lhumerus 12.8556 -1.19203 36.15
lradius 130.106
lwrist -10.4909
lhand -18.6277 11.0489
lfingers 7.12502
lthumb 7.66454 40.89
rfemur 5.875 11.5112 24.2176
rtibia 7.81291
rfoot -10.0112 -15.9709
rtoes -11.5704
lfemur -1.2979 -16.6619 -16.0206
ltibia 17.6846
lfoot -15.7556 6.83699
ltoes -16.145
487
root -0.31914 17.35 -0.260189 -0.749717 3.50114 -1.79956
lowerback -1.45472 -0.162662 0.678448
upperback -1.51707 -0.246268 -5.58923
thorax -0.774041 -0.160101 -6.17691
lowerneck -13.1704 -11.6465 -19.54
upperneck 17.1337 -12.5291 3.88454
head 9.08221 -6.80742 2.75791
rclavicle -1.27222e-014 2.22639e-014
rhumerus 13.1227 -5.30946 1.60523
rradius 134.27
rwrist 20.4621
rhand -25.8644 20.138
rfingers 7.12502
rthumb 0.676741 -9.84071
lclavicle -1.27222e-014 2.22639e-014
lhumerus 12.955 -1.27075 36.1228
lradius 130.082
lwrist -10.3423
lhand -18.7244 11.0223
lfingers 7.12502
lthumb 7.57117 40.8668
rfemur 5.91776 11.5395 24.1753
rtibia 7.68154
rfoot -9.9432 -16.0149
rtoes -11.8537
lfemur -1.24822 -16.7505 -16.0694
ltibia 17.5629
lfoot -15.6939 6.91467
ltoes -16.4592
488
root -0.319245 17.3516 -0.25827 -0.71879 3.52076 -1.76231
lowerback -1.47899 -0.144801 0.64192
upperback -1.49288 -0.220397 -5.61262
thorax -0.732516 -0.145751 -6.18055
lowerneck -13.2809 -11.699 -19.5911
upperneck 17.1963 -12.5718 3.91326
head 9.1342 -6.82753 2.76077
rclavicle 2.34566e-014 3.33958e-014
rhumerus 13.1107 -5.33622 1.64885
rradius 134.258
rwrist 20.4757
rhand -26.0908 20.0978
rfingers 7.12502
rthumb 0.458084 -9.88149
lclavicle 2.34566e-014 3.33958e-014
lhumerus 13.0549 -1.33233 36.1456
lradius 130.056
lwrist -10.1957
lhand -18.9057 10.9947
lfingers 7.12502
lthumb 7.39617 40.8454
rfemur 5.94186 11.531 24.1249
rtibia 7.59399
rfoot -9.98605 -15.9979
rtoes -11.6193
lfemur -1.20585 -16.8359 -16.1187
ltibia 17.4415
lfoot -15.5543 7.21589
ltoes -18.4283
489
root -0.318885 17.3547 -0.255666 -0.674283 3.54987 -1.64614
lowerback -1.53186 -0.143471 0.524191
upperback -1.4569 -0.214591 -5.65351
thorax -0.664738 -0.14024 -6.15626
lowerneck -13.3693 -11.7552 -19.6426
upperneck 17.1768 -12.6238 3.9458
head 9.15487 -6.84896 2.76598
rclavicle 6.16232e-015 5.24792e-014
rhumerus 13.12 -5.36526 1.65689
rradius 134.193
rwrist 20.6001
rhand -26.2652 20.1559
rfingers 7.12502
rthumb 0.289592 -9.82365
lclavicle 6.16232e-015 5.24792e-014
lhumerus 13.1297 -1.34061 36.1478
lradius 130.029
lwrist -10.0913
lhand -19.0688 10.9954
lfingers 7.12502
lthumb 7.23877 40.8516
rfemur 5.94366 11.5153 23.9824
rtibia 7.5265
rfoot -10.0083 -15.9708
rtoes -11.4076
lfemur -1.17472 -16.9105 -16.2602
ltibia 17.3286
lfoot -15.4544 7.48636
ltoes -19.6449
490
root -0.319097 17.3545 -0.254594 -0.664692 3.5708 -1.64659
lowerback -1.51592 -0.149279 0.514116
upperback -1.45545 -0.222667 -5.675
thorax -0.673194 -0.144429 -6.17332
lowerneck -13.392 -11.7481 -19.5798
upperneck 17.148 -12.6216 3.94179
head 9.14337 -6.84311 2.75595
rclavicle 5.96354e-015 6.83819e-014
rhumerus 13.0707 -5.27977 1.56069
rradius 134.154
rwrist 20.8414
rhand -26.3579 20.2581
rfingers 7.12502
rthumb 0.200055 -9.72152
lclavicle 5.96354e-015 6.83819e-014
lhumerus 13.1471 -1.34953 36.148
lradius 130.043
lwrist -10.0274
lhand -19.1295 10.9423
lfingers 7.12502
lthumb 7.18013 40.8005
rfemur 5.97802 11.5033 23.9805
rtibia 7.45842
rfoot -9.93705 -15.9596
rtoes -11.6251
lfemur -1.13369 -16.9599 -16.2604
ltibia 17.2308
lfoot -15.4227 7.41798
ltoes -18.9339
491
root -0.318174 17.3543 -0.25207 -0.658445 3.57158 -1.68646
lowerback -1.49449 -0.150694 0.545321
upperback -1.48295 -0.226708 -5.67866
thorax -0.714236 -0.147879 -6.19519
lowerneck -13.3686 -11.7121 -19.5374
upperneck 17.1497 -12.5857 3.93533
head 9.13197 -6.82521 2.75524
rclavicle -1.98785e-015 5.08889e-014
rhumerus 12.9862 -5.16909 1.50876
rradius 134.243
rwrist 21.0233
rhand -26.424 20.3372
rfingers 7.12502
rthumb 0.136222 -9.64254
lclavicle -1.98785e-015 5.08889e-014
lhumerus 13.1039 -1.36282 36.1593
lradius 130.072
lwrist -10.0074
lhand -19.0561 10.8272
lfingers 7.12502
lthumb 7.25096 40.6829
rfemur 6.01802 11.5106 24.0205
rtibia 7.38158
rfoot -9.8084 -16.007
rtoes -12.1043
lfemur -1.07815 -17.0771 -16.233
ltibia 17.1475
lfoot -15.5414 7.3
ltoes -17.0405
492
root -0.318135 17.3553 -0.249009 -0.646807 3.53989 -1.64846
lowerback -1.47862 -0.10542 0.498914
upperback -1.50848 -0.167457 -5.73348
thorax -0.742976 -0.118792 -6.22625
lowerneck -13.3294 -11.6997 -19.4458
upperneck 17.1876 -12.5907 3.89638
head 9.12966 -6.82788 2.73012
rclavicle -1.64991e-014 -1.59028e-014
rhumerus 12.8311 -5.12059 1.54117
rradius 134.369
rwrist 21.0289
rhand -26.3407 20.2904
rfingers 7.12502
rthumb 0.216662 -9.68927
lclavicle -1.64991e-014 -1.59028e-014
lhumerus 13.1878 -1.4419 36.1566
lradius 130.075
lwrist -10.0493
lhand -18.9872 10.8621
lfingers 7.12502
lthumb 7.31754 40.7155
rfemur 6.08164 11.5517 23.977
rtibia 7.25261
rfoot -9.67612 -16.0487
rtoes -12.507
lfemur -1.03419 -17.1536 -16.2939
ltibia 17.0998
lfoot -15.6283 7.30614
ltoes -15.9771
493
root -0.318042 17.3562 -0.246178 -0.627934 3.52501 -1.64794
lowerback -1.51119 -0.0458199 0.517444
upperback -1.46734 -0.0851419 -5.7945
thorax -0.673335 -0.0760331 -6.30106
lowerneck -13.2811 -11.7495 -19.4224
upperneck 17.072 -12.686 3.95835
head 9.09393 -6.86184 2.73697
rclavicle 2.5842e-015 -1.90833e-014
rhumerus 12.6709 -5.21112 1.60063
rradius 134.441
rwrist 20.9785
rhand -26.1228 20.2205
rfingers 7.12502
rthumb 0.427133 -9.75885
lclavicle 2.5842e-015 -1.90833e-014
lhumerus 13.4042 -1.46975 36.1649
lradius 130.069
lwrist -10.1751
lhand -18.9453 10.8689
lfingers 7.12502
lthumb 7.35791 40.721
rfemur 6.12789 11.576 23.9724
rtibia 7.14309
rfoot -9.67438 -16.0524
rtoes -12.4662
lfemur -1.00854 -17.1787 -16.3033
ltibia 17.0464
lfoot -15.508 7.42518
ltoes -16.7856
